<svg xmlns="http://www.w3.org/2000/svg" viewBox="0 0 966.33 966.33"><defs><style>.cls-1{fill:none;stroke:#231815;stroke-miterlimit:10;}</style></defs><g id="图层_23" data-name="图层 23"><path class="cls-1" d="M324.3,544c-15.66,5.55-31.41,10.83-47.16,16.09-9,2.6-51.8,14.75-59.81,17.07-5.18,2-10.91.47-13.71-4.53l-.45-.92-.36-1-.46-1.5A293.76,293.76,0,0,1,192,523.44c-1.39-9.8-2.28-19.72-2.72-29.61a5.54,5.54,0,0,0-5.76-5.19l-1.55,0-6.22.16c-55.22,1-119.06,4.45-174.17,1.85,54.86-5.37,118.87-5.08,174-6.85l6.22-.15a19.19,19.19,0,0,1,3.55.08,10.56,10.56,0,0,1,8.88,9.76c.44,9.77,1.31,19.54,2.68,29.22a289.6,289.6,0,0,0,10.17,45.06l.45,1.47.19.5.24.48a5.55,5.55,0,0,0,6.46,2.56l1.5-.42,59.8-17.11c16.15-3.85,32.31-7.69,48.54-11.24Z"/></g><g id="图层_22" data-name="图层 22"><path class="cls-1" d="M134.38,815.77c37.16-35.39,74.77-71.4,112.3-106.44a5.66,5.66,0,0,0,2.14-3.86,5.43,5.43,0,0,0-1.31-4.11l-4.3-4.74q-10.82-12.11-20.39-25.26-3.82-5.25-7.44-10.65c-1.45-2.07-2.93-4.44-3-7.07a10.81,10.81,0,0,1,5.93-10.08l2.76-1.67,5.51-3.33a10.72,10.72,0,0,1,15.84,3.34c1.29,1.87,3.2,4.71,4.5,6.6a292.62,292.62,0,0,0,108,92.71c92.53,47,209.84,38.71,294.63-21.19l.67-.44.46-.35a5.63,5.63,0,0,0,1.36-7.13c-.7-1.15-4.54-6.39-5.45-7.72-13.35-18.74-31.47-44.34-44.69-63.15l16,20.2c10.19,13,26.7,33.89,36.88,46.86a10.46,10.46,0,0,1-2.36,15.91C535.27,806.93,367,789.45,269.63,684a294.85,294.85,0,0,1-24.84-30c-2.08-2.82-4.53-6.45-6.5-9.34l-.45-.67a5.58,5.58,0,0,0-4.14-2.58,6.61,6.61,0,0,0-4.49,1.42l-5.52,3.33-2.75,1.67a7.67,7.67,0,0,0-2,1.49,5.57,5.57,0,0,0-.24,7.27c2.65,4,5.37,7.95,8.2,11.82a319.49,319.49,0,0,0,20.08,24.87l4.35,4.8a10.59,10.59,0,0,1-1.19,15C212,747.49,172.85,781.8,134.38,815.77Z"/></g><g id="图层_21" data-name="图层 21"><path class="cls-1" d="M242.2,507.06a247.51,247.51,0,0,0,32.38,97.67,269.68,269.68,0,0,0,47,58.33,244.1,244.1,0,0,0,50.69,35.82c129.07,68.27,289.4,7.37,340.35-129.49l.77-2a15.52,15.52,0,0,1,1-2.37,10.62,10.62,0,0,1,13.4-4.39l1,.38c12.76,4.75,39.88,14.9,52.82,19.71l2,.76.53.2.66.28a12.58,12.58,0,0,1,1.24.69,10.55,10.55,0,0,1,4.15,12.47l-.79,2c-1,2.34-3.75,9.72-4.75,12.22a326.08,326.08,0,0,1-113.64,141c-4.75,3.2-9.73,6.61-14.57,9.67-7.46,4.56-15.16,8.71-23,12.59l-1.95,1-1,.5a6,6,0,0,0-3.1,7.48c12.92,29,30.49,67.88,43.32,96.89-14-28.12-32.61-66.2-46.43-94.37a10.13,10.13,0,0,1,4.29-13.84c.57-.3,2.22-1.24,2.82-1.56a376.77,376.77,0,0,0,43.65-27.52,323,323,0,0,0,58.87-56.41c20.49-25.77,37.54-54.57,49.19-85.41l1.56-4,.78-2a5.45,5.45,0,0,0,.34-1.48,5.61,5.61,0,0,0-4-5.78l-2-.76c-13-4.87-40.07-14.93-52.82-19.7l-1-.38a6.3,6.3,0,0,0-2.36-.58,5.56,5.56,0,0,0-5,2.77c-.4.7-.94,2.32-1.46,3.63A246.3,246.3,0,0,1,661,659c-85,86.36-223.14,97.34-320.79,25.75a252.47,252.47,0,0,1-29.93-25.6C270.12,619,245.82,563.28,242.2,507.06Z"/></g><g id="图层_20" data-name="图层 20"><path class="cls-1" d="M544.13,699.78c10.37,31.44,20.73,62.87,30.63,94.45.46,1.75,1.33,4.18,1.61,6a10.6,10.6,0,0,1-7.77,11.68q-11.4,2.9-23,5c-84,15.52-173.46-1.77-245.22-48.17l-1.24-.79A5.61,5.61,0,0,0,291,769.3l-6.68,9.58c-2.82,4.19-8.76,12.39-11.45,16.54a5.53,5.53,0,0,0,1.81,7.1,382.24,382.24,0,0,0,96.81,45.41,378.21,378.21,0,0,0,79.58,15.39c2,.14,4.72.22,6.57,1.15a10.39,10.39,0,0,1,5.94,10.87l-.12,1.45c-2.3,27.37-5,59.84-7.44,87.25.7-27.58,1.87-60.12,2.74-87.63l0-1.46a5.75,5.75,0,0,0-3.28-5.83c-1.06-.61-3.65-.62-4.88-.78a386.66,386.66,0,0,1-166.27-53.85q-5.06-3-10-6.21l-2.49-1.61a10.16,10.16,0,0,1-2.73-2.66,10.54,10.54,0,0,1-.73-10.91c1.18-2,3.82-5.61,5.11-7.49l6.67-9.59c.74-1.08,7.08-10.32,7.82-11a10.62,10.62,0,0,1,13.82-1.27l1.22.78c77.21,50,175.26,65.47,264.26,42.53a5.51,5.51,0,0,0,3.75-7.17c-9.56-33.2-18.13-66.69-27-100.1Z"/></g><g id="图层_19" data-name="图层 19"><path class="cls-1" d="M864.54,546.14c-10,91.39-63,176.07-132.8,234.43A391.89,391.89,0,0,1,668.94,823c-5.75,4-13.24,2.9-16.52-3.77-11.28-21.84-20.81-44.56-30.76-67,11.73,20.94,24,41.67,34.47,63.26a22.39,22.39,0,0,0,1.42,2.65,5.5,5.5,0,0,0,6.3,1.91,28.23,28.23,0,0,0,2.71-1.41c5.83-3.19,12.08-6.77,17.7-10.21C782.12,748,839.08,657,864.54,546.14Z"/></g><g id="图层_18" data-name="图层 18"><path class="cls-1" d="M146.63,455.44A354.53,354.53,0,0,0,148.79,512c.33,2.54,1.49,11.77,1.83,14,.72,3.92,1.83,9.9,2.55,13.86.3,1.77.72,3.83,1.13,5.52,1.73,7.3,2.86,14.75,5,21.95,1,3.61,1.9,7.26,3,10.86,1.3,4,4,12.28,5.25,16.06,1.24,3.21,4.77,12.4,6.06,15.76l4.58,10.29c2.46,5.89,7,14.44,9.92,20.22,3.67,6.4,7.36,13.24,11.4,19.42a339,339,0,0,0,61.64,72.83c1.63,1.46,3.43,3.07,4.24,5.21A10.52,10.52,0,0,1,264,748.47l-1.8,2.24c-3.58,4.35-10.68,13.28-14.26,17.65-.72.83-3.9,5-4.77,5.72a10.55,10.55,0,0,1-13.67.48c-1.89-1.62-5.6-5-7.54-6.71C215,761.46,208,754.64,201.62,747.8A387.54,387.54,0,0,1,101.26,546.31a383.25,383.25,0,0,1-2-90.87C95.38,571.19,138.9,685.9,225.31,764.16l4.2,3.76,2.1,1.88.53.47.26.23a5.56,5.56,0,0,0,8.06-.87c2.16-2.73,8.42-10.39,10.69-13.24l7.13-8.82,1.76-2.19a5.64,5.64,0,0,0-1.16-8c-10.18-9.26-20.29-18.87-29.3-29.26a344.15,344.15,0,0,1-45.87-65.33c-1.74-3.5-6.08-11.87-7.75-15.3s-5.41-12.15-7-15.66c-1.27-3.33-4.9-12.74-6.15-16a356.44,356.44,0,0,1-14-52.4c-.69-5.19-1.57-11.8-2.25-17a338.63,338.63,0,0,1,0-71Z"/></g><g id="图层_17" data-name="图层 17"><path class="cls-1" d="M636.9,759.16c13,22.14,26.44,44,38.45,66.69l1,1.79c.16.3.25.42.38.65a5.55,5.55,0,0,0,5.45,2.34,7.49,7.49,0,0,0,2.85-1.26l3.46-2.06,6.91-4.13A405.51,405.51,0,0,0,821,700.35c2.4-3.83,6.28-9.76,8.49-13.68l4.09-6.93a5.85,5.85,0,0,0,.76-5.55,5.78,5.78,0,0,0-2.94-3c-29.49-15.52-87-45.85-116.44-61.38-18.75-10.74-37.51-21.47-56.15-32.42,34,15.5,82.42,40.16,115.81,58.22L831.9,665.8l1.79.94.46.25a10.57,10.57,0,0,1,5.48,10.54,11.28,11.28,0,0,1-1.75,4.68c-1.43,2.48-4.83,8.17-6.2,10.53-3.34,5.33-7.46,12-11.07,17.1A407.87,407.87,0,0,1,718.36,813.91c-8.62,6.09-18.23,12.34-27.37,17.7l-3.49,2.09-.88.52a10.55,10.55,0,0,1-13.26-2.09,20,20,0,0,1-2.42-3.92c-12.16-22.6-22.85-46-34-69.05Z"/></g><g id="图层_16" data-name="图层 16"><path class="cls-1" d="M81.33,515a413,413,0,0,0,24.42,103.57A453.54,453.54,0,0,0,132,674.69a383.67,383.67,0,0,0,28.57,44.76A403.18,403.18,0,0,0,308.86,842.92c1.13.51,4.38,2.31,5.53,2.53a5.57,5.57,0,0,0,6.29-3.35c1.32-2.9,4.29-9.41,5.55-12.16l.46-1a5.58,5.58,0,0,0-2-7.49c-10.59-5.09-21.43-10.68-31.49-16.7q-3.85-2.28-7.67-4.66a10.52,10.52,0,0,1-3-15.19c1.84-2.68,4.49-6.51,6.32-9.18a10.75,10.75,0,0,1,15.7-3.84c3.91,2.29,8.41,5.15,12.4,7.29,141.9,80.56,325.07,47,429.14-78.72,6.4-7.7,13-16.4,18.75-24.62a353.09,353.09,0,0,0,23.42-37.55c4.18-7.69,4.6-8.51,8.22-16.44l.78-1.69a8,8,0,0,1,10.41-4l1.85.79c19.16,7.88,50.7,20.28,69.87,28.24-18.42-6.61-52.35-19.27-72.89-26.83a5,5,0,0,0-6.32,2.74L799,623.76c-6.75,16.45-11.24,24.56-20.43,39.77-99.49,162.8-314.83,213-476.68,112.58-3.4-2.37-7-1.13-9,2.43-1.84,2.65-4.47,6.52-6.31,9.18a5.55,5.55,0,0,0,.33,7.12c2.63,2.2,5.89,3.73,8.79,5.59,8.85,5.25,18,10.15,27.29,14.65,1.4.71,2.69,1.22,4.18,2a10.54,10.54,0,0,1,4.53,12.68c-.82,2-2,4.39-2.81,6.27l-3.7,8.11-.12.25-.16.32-.34.65a10.57,10.57,0,0,1-12.69,4.53c-1.08-.37-4.2-2-5.24-2.51A407.8,407.8,0,0,1,141.33,700.24C105.6,645.18,85.58,580.12,81.33,515Z"/></g><g id="图层_15" data-name="图层 15"><path class="cls-1" d="M347.28,618.92c-37.46,31-75.2,62.23-113.86,91.77-.35.27-4.41,3.42-4.64,3.61a10.52,10.52,0,0,1-14.57-1.51A358.13,358.13,0,0,1,164,636.1a5.64,5.64,0,0,0-8-2.08c-.57.26-2.79,1.27-3.28,1.56a5.56,5.56,0,0,0-2.62,5.34c0,1.09,1.18,3,1.64,4l2.31,4.64a372.27,372.27,0,0,0,66.58,92.13l3.67,3.67a6.38,6.38,0,0,0,3.2,2.07,5.74,5.74,0,0,0,5.81-2.08l.9-.94,7.22-7.55a5.57,5.57,0,0,0,.12-8.15l-1.84-1.88a346.1,346.1,0,0,1-43.39-52.69c-27.47-40.74-44.52-80.38-52.73-128.78l-.34-1.93A3,3,0,0,0,140,541c-2.67.27-4.62.39-7.94.65-28.35,2.26-63.24,5.17-91.63,7.28,33.14-4.35,62.69-8.62,95.8-12.52l3.19-.37a8,8,0,0,1,8.83,6.63l.46,2.81c11.28,70,44.27,127.89,94.53,177.84l1.82,1.85a10.64,10.64,0,0,1,3.08,9.35,10.89,10.89,0,0,1-3.09,5.83c-.56.54-7.75,8.13-8.12,8.49-3.67,4.45-10.88,5.1-15.12,1.09-.3-.26-.74-.69-1-1L217,745.22a376.94,376.94,0,0,1-67.48-93.36c-.66-1.39-2.86-5.69-3.52-7.08a10.61,10.61,0,0,1,5.46-14.21l2.37-1.09c4.93-2.83,11.92-.94,14.5,4.29a353,353,0,0,0,48,73.78l1.68,2a5.6,5.6,0,0,0,8.22.42c11.24-8.82,25.93-20.08,37-28.91,27.77-21,55.92-41.51,84-62.12Z"/></g><g id="图层_14" data-name="图层 14"><path class="cls-1" d="M822.46,582.48a320.25,320.25,0,0,1-11,38c-5.3,12.11-11.09,24-17.55,35.53a360.26,360.26,0,0,1-74.52,92l-7.53,6.44c-2.84,2.89-7,4.75-11.06,3.56a10.89,10.89,0,0,1-6.22-4.42l-.75-1-31.64-40.85c-7.43-10.83-14.88-21.66-22.13-32.64,8.83,9.75,17.45,19.67,26.09,29.58,5.65,7.31,26.36,34,31.63,40.84l.76,1a5.71,5.71,0,0,0,6.83,2.47,13.23,13.23,0,0,0,3.29-2.39,357.33,357.33,0,0,0,59.83-64.13c23.13-31.78,39.25-67.67,54-104Z"/></g><g id="图层_13" data-name="图层 13"><path class="cls-1" d="M162.94,334.86c-8.2,21.62-14.32,43.85-20,66.18a352.82,352.82,0,0,0,11,198.26,8,8,0,0,1-4.89,10.27c-12.1,4.2-26.41,9.28-37.17,12.84-12.15,3.54-31.15,9.07-43.24,12.38,5.19-2.21,15.58-6.45,20.79-8.59l20.85-8.42c10.45-3.71,23.86-8.21,35.2-12.11a5,5,0,0,0,3.06-6.48l-.7-1.85c-28.65-86-26.1-180.47,15.1-262.48Z"/></g><g id="图层_12" data-name="图层 12"><path class="cls-1" d="M598.51,657.14c11.17,16.28,28,40.11,39.06,56.39a9.88,9.88,0,0,1-1.84,13.87c-70.09,45.47-161.11,55.21-240.25,29.68-4.39-1.4-8.74-2.94-13.06-4.55l-1.6-.59a5.53,5.53,0,0,0-6.92,2.87l-5.31,12.57-1.33,3.16a7.14,7.14,0,0,0-.73,2.49,5.53,5.53,0,0,0,3.56,5.57l3.18,1.2q9.57,3.56,19.35,6.49c5.4,1.62,10.94,3.11,16.42,4.44l1.65.4.44.1a10.69,10.69,0,0,1,7.64,13.26c-.21,1.32-1.38,7-1.61,8.42l-1.32,6.8a10.5,10.5,0,0,1-12.6,8l-.21-.06-.84-.21-6.7-1.67c-8.65-2.14-18-5.08-26.47-7.87a357.6,357.6,0,0,1-110.9-62c-5.52-4.62-11.59-9.94-16.86-14.82a5.57,5.57,0,0,0-7.58-.46,5.89,5.89,0,0,0-.45.42l-.59.59-1.2,1.22c-2.94,3.08-11.56,11.65-14.47,14.66l-2.41,2.45-1.24,1.24a10.65,10.65,0,0,1-15.65-1c-39.29-39.5-68.66-88.68-86.43-141.25a398.12,398.12,0,0,0,53.7,94.9c3.86,5.13,8.45,11.27,12.5,16.17,5.71,7.07,11.73,13.88,17.91,20.54l4.72,4.92c.61.64,1.7,1.8,2.26,2.32a5.53,5.53,0,0,0,7.49-.19L211,756.4c4.26-4.28,12.47-12.68,16.83-17.06.47-.46,1.39-1.42,1.83-1.85a10.58,10.58,0,0,1,15-.11,368.19,368.19,0,0,0,35.51,29.13c7.19,5.06,15.19,10.49,22.74,15a346.72,346.72,0,0,0,93.8,39.44l6.61,1.66.82.2.21.06a5.55,5.55,0,0,0,6.59-4.19c.76-4.18,2.14-10.93,2.9-15.09a5.7,5.7,0,0,0-3.92-7.46c-.08,0-1.89-.44-2.08-.5-5.57-1.35-11.19-2.87-16.68-4.51q-9.92-3-19.65-6.6c-2.3-.89-5.26-1.72-7-3.63a10.7,10.7,0,0,1-1.91-12.25l1.33-3.16,5.36-12.7a10.57,10.57,0,0,1,13.22-5.49c81.68,31.85,176.76,22,251.44-23.35a6.34,6.34,0,0,0,.84-8.57c-10.36-16.71-26-41.35-36.33-58.19Z"/></g><g id="图层_11" data-name="图层 11"><path class="cls-1" d="M98.34,650.11c26.12-11.45,90.25-39.38,115.36-50.3l19.3-8.35a10.1,10.1,0,0,1,11.83,3.36c.88,1.24,2,3.49,2.74,4.87a270.06,270.06,0,0,0,51.93,70.92c82.32,82.16,216.65,99,316.73,39.81a12.3,12.3,0,0,1,6-1.92,10.27,10.27,0,0,1,9.05,5.08c1.56,2.66,2.24,3.95,3.59,6.26,7.56,13.09,18.48,32.39,25.94,45.59-5.94-8.7-17.47-26.16-23.29-34.91-2.16-3.13-6.67-10.14-8.7-13.11l-.73-1.09a5.94,5.94,0,0,0-5.65-3.09,8.58,8.58,0,0,0-3.72,1.57c-76.39,44.71-174.87,47.92-254,8.16-53.24-26.39-97.92-70.79-123.18-124.71a5.94,5.94,0,0,0-7.25-3.21c-35.49,14.42-100,40.55-136,55.07Z"/></g><g id="图层_9" data-name="图层 9"><path class="cls-1" d="M762.07,481.46a226.22,226.22,0,0,1,.64,32.53,282.38,282.38,0,0,1-15,63.33c-2.77,7.67-5.93,15.2-9.35,22.6a10.55,10.55,0,0,1-15,5.52l-1.81-.91c-23.65-12-55.5-28.16-79.27-40.2-9.26-5.55-18.54-11.08-27.69-16.85,10.06,4,20,8.2,29.95,12.39l79.28,40.2c.27.12,2,1,2.23,1.12a5.54,5.54,0,0,0,6.15-.85,6.83,6.83,0,0,0,1.64-2.54c3.36-7.26,6.46-14.65,9.18-22.19a272.38,272.38,0,0,0,14.67-62.19c2-10.53,3.32-21.19,4.37-32Z"/></g><g id="图层_8" data-name="图层 8"><path class="cls-1" d="M206.21,481.46c2.39,75.63,34.91,150.57,90.74,202a276.17,276.17,0,0,0,36.15,28.33l1.28.85a5.56,5.56,0,0,0,8-1.56c1.19-2.05,28.39-44,30.52-47.48l6.69-10.41a10.81,10.81,0,0,1,6.1-4.81,10.4,10.4,0,0,1,7.9.78,191.88,191.88,0,0,0,22.11,10.42,187.28,187.28,0,0,0,35.15,10.09c3.51.7,7.32,1.12,10.84,1.77a10.69,10.69,0,0,1,7.74,12.18c-.63,8.8-2.12,29.55-2.77,38.57-.16,3.34-2.09,26.67-2,29.57a5.51,5.51,0,0,0,4.45,4.67,24.52,24.52,0,0,0,2.75.14l6.13.16,6.13.15,6.13-.17c3.43-.15,8.84-.12,12.25-.49a274.37,274.37,0,0,0,94.64-23.61c5.33-2.2,11.35-5.52,16.5-8.12,2.09-1,3.46-1.9,5.37-2.94l5.39-2.93c4.4-2.2,11.65-7,15.8-9.47l10.12-7c.84-.59,1.7-1.15,2.52-1.76,3.64-2.9,8.55-6.49,12.14-9.46,2.21-2,7.1-6.08,9.34-8.05,3.08-2.68,6.07-5.78,9-8.46,3.93-3.55,9.31-9.69,12.9-13.33-3.24,3.58-8.88,10.86-12.14,14.06l-4.25,4.52c-2.3,2.53-6.25,6.36-8.82,8.73-2.76,2.72-6.29,6-9.19,8.35s-6.61,5.76-9.56,8l-9.9,7.55-10.29,7.05c-3.93,2.65-9.18,5.7-13.28,8.18-1.44,1-6.64,3.41-8.32,4.29-6.18,3.23-13.45,6.34-19.83,9.14a286.37,286.37,0,0,1-90.92,20.51c-4.45.16-11.11.29-15.59.43l-6.24-.15c-2.64-.09-7-.07-9.65-.38a10.52,10.52,0,0,1-8.53-8.93,14.09,14.09,0,0,1,0-2.83c.05-1,1.88-26,2-27.76.66-9.13,2.14-29.68,2.78-38.57.6-3.73-1.33-6.85-5.23-7.19-3-.41-6.3-.94-9.28-1.48a193.43,193.43,0,0,1-36.08-10.36,198.92,198.92,0,0,1-22.63-10.66,5.36,5.36,0,0,0-4.1-.4,5.7,5.7,0,0,0-3.33,2.72l-6.69,10.41c-2,3.15-28.75,44.73-30.1,46.84a12.72,12.72,0,0,1-2.35,2.93,10.55,10.55,0,0,1-12.7,1l-.33-.22-1.29-.86A280.53,280.53,0,0,1,289,682.83c-34.18-33.3-60.65-75.3-73.33-121.47a275.89,275.89,0,0,1-9.49-79.9Z"/></g><g id="图层_7" data-name="图层 7"><path class="cls-1" d="M534.85,788.27c-1.3-8.26-4.62-29.34-5.86-37.32-.18-1-.52-3.69-.73-4.63A7.12,7.12,0,0,0,520,740.7a262.38,262.38,0,0,1-108.28-7l-3.06-.88c-.28-.08-.42-.1-.61-.15a5.59,5.59,0,0,0-6.52,3.65c-.63,1.87-2.24,7-2.88,9-1.28,3.93-4.65,14.13-5.9,17.93A10.65,10.65,0,0,1,380.28,771c-2.62-.7-4-1.44-6.29-2.23a307.72,307.72,0,0,1-45.68-22c-6.82-4-13.48-8.32-20-12.81-6.33-3.76-11.74,5.4-4.94,9.22,124.79,87.31,298.44,71.27,405.44-37a10.59,10.59,0,0,1,14.79.18l2.28,2.17c3.33,3.06,10.37,10,13.68,13l9.11,8.69,1.14,1.08.58.55.71.75a10.54,10.54,0,0,1-1,14.71c-2.22,2.21-4.58,4.47-6.82,6.62-99.13,95-246.93,127.56-376.95,83.73-1.88-.6-3.1-1.21-4.86-.86a5.62,5.62,0,0,0-4.28,3.93l-.28.73c-1,2.49-2.43,6.45-3.35,8.83l-1.11,3a12.92,12.92,0,0,0-.8,2.47,5.52,5.52,0,0,0,3.61,6l1.47.49c101,33.89,215.36,27.12,311.09-20.12-95.72,50.61-211.62,60-314.2,24.35A10.53,10.53,0,0,1,346.68,855c.24-2,1.57-4.59,2.19-6.47l2.23-5.89c.24-.71,1.17-3,1.39-3.67a10.63,10.63,0,0,1,13.92-6.53c124,42.51,266.64,14,364.18-73.69,5.49-4.8,10.77-9.86,16-15a5.61,5.61,0,0,0,.76-7.92c-.14-.16-.75-.76-.93-.93-5.08-4.86-14.29-13.58-19.38-18.45l-4.56-4.34L720.16,710l-.27-.26-.21-.18a5.53,5.53,0,0,0-7.39.24C611,812.41,447.91,834.33,323.32,761.65c-8.14-4.68-16.06-9.73-23.77-15.08a10.2,10.2,0,0,1,11.55-16.81l1.33.9,2.58,1.77a297.45,297.45,0,0,0,66.33,33.67,5.6,5.6,0,0,0,6.61-4.49l1.94-6,3.89-12c.64-2,2.36-7.06,3-9a10.53,10.53,0,0,1,13.28-6.39l3,.92a258.78,258.78,0,0,0,98.89,10.24c3.19-.21,6.33-.79,9.53-.91a9,9,0,0,1,8.14,5.8c.69,1.78.75,4.52,1,6.41.91,7.93,3.3,29.34,4.22,37.55Z"/></g><g id="图层_6" data-name="图层 6"><path class="cls-1" d="M450.29,813.86a303.5,303.5,0,0,1-57.24-8.3A337.92,337.92,0,0,1,281.1,749.77c-1.14-.9-4.24-3.24-5.3-4.1a10.55,10.55,0,0,1-3.05-12.13c.62-2,6.38-8.34,7.68-10.12l12.15-14.88,24.3-29.76a5.54,5.54,0,0,0-.53-7.67c-.11-.13-.54-.48-.66-.61A254.75,254.75,0,0,1,274,621.83c-2.22-3.35-4.36-6.83-6.43-10.28a5.76,5.76,0,0,0-8.17-1.81l-3.18,1.69C186,649.29,114,685.75,43.11,722.2c69.75-38.53,140.18-78,210.73-115.17.68-.4,2.51-1.31,3.17-1.69,4.89-3.11,12-1.46,14.84,3.66a250.26,250.26,0,0,0,29.56,40.14c5.85,6.5,12.11,12.64,18.58,18.54a10.56,10.56,0,0,1,.76,14.26L284.3,726.59,278.23,734a5.55,5.55,0,0,0,1.17,8.11c2.31,1.83,6.17,4.74,8.53,6.5a329.05,329.05,0,0,0,106.5,52,373,373,0,0,0,55.86,13.21Z"/></g><g id="图层_5" data-name="图层 5"><path class="cls-1" d="M222.47,848.09c35.06-53.66,79.92-112.84,117.78-164.62l2.6-3.55a19,19,0,0,1,3.26-3.84,10.61,10.61,0,0,1,12.67-.41l.46.29,1.84,1.17a229.18,229.18,0,0,0,84.59,33c7.81,1.38,15.84,2.3,23.75,2.89a10.65,10.65,0,0,1,10,8.66,24.49,24.49,0,0,1,.06,4.92c-1.1,30.62-2.64,70.38-3.76,101.14-1.35,35-4.22,70.46-6.43,105.43.4-35,.16-70.59,1.43-105.62,1.1-30.83,2.66-70.46,3.76-101.13a24.89,24.89,0,0,0,0-3.86A5.57,5.57,0,0,0,470,718.1l-3.09-.27c-7.36-.57-14.8-1.51-22.05-2.77a234.3,234.3,0,0,1-86.43-33.72l-1.88-1.2-.47-.3a5.61,5.61,0,0,0-7.84,1.25c-.85,1.12-3,4.16-3.9,5.32-38.08,51.66-81.12,112.11-121.82,161.68Z"/></g><g id="图层_2" data-name="图层 2"><path class="cls-1" d="M599.7,926.53c-15.8-52-34.59-113.26-49.31-165.45-.78-2.47-1-5.22-2.15-7.55a5.5,5.5,0,0,0-6-2.47,278.38,278.38,0,0,1-38.79,5.26c-109.22,8.29-218-54.52-265.85-153A273.36,273.36,0,0,1,224,571.29c-1-2.7-1.83-5.55-2.73-8.27a10.83,10.83,0,0,1,1.18-10.43,10.53,10.53,0,0,1,6.11-4l11.14-2.85c13.06-3.31,31.68-8.35,44.67-11.07,20-4.46,47.37-10.68,67.42-15-19.66,5.83-46.65,13.5-66.35,19.19-12.65,3.83-31.58,8.38-44.5,11.72l-11.15,2.85a5.56,5.56,0,0,0-4.34,5.86A249.71,249.71,0,0,0,242,601.14C295.27,709.65,418.43,770.63,537,747l2.8-.55,1.39-.28a10.84,10.84,0,0,1,8.86,1.89,10.41,10.41,0,0,1,3.7,5.39c.09.31.17.62.22.82l1.37,5.52c11.78,45.87,32,120.41,44.37,166.74Z"/></g></svg>