<svg width="5397" height="1363" viewBox="0 0 5397 1363" fill="none" xmlns="http://www.w3.org/2000/svg">
<g clip-path="url(#clip0_1565_18361)">
<path d="M678.36 0C304.36 0 0 304.31 0 678.35C0 704.57 7.40002 776.47 7.40002 776.47C42.4844 770.119 77.9408 766.03 113.55 764.23C158.68 762.23 207.41 766.53 235.96 771.32C239.77 820.8 248.26 863.87 272.52 904.4C351.62 1036.48 459.13 1109.53 600.68 1124.96C618.762 1126.78 636.942 1127.45 655.11 1126.96C655.11 1126.96 639.21 1072.51 626.65 1043.84C607.3 999.69 586.48 960.5 560.26 924.96C501.26 824.37 469.02 760.69 469.02 668.02C469.02 627.83 476.48 584.93 491.02 540.02C551.63 589.76 603.19 663.57 644.61 760.08L645.9 763.17C648.1 768.35 668.54 813.17 668.54 813.17C668.54 813.17 688.99 768.36 691.19 763.17L692.48 760.08C733.89 663.57 785.48 589.76 846.07 540.02C860.65 584.91 868.07 627.81 868.07 668.02C868.07 760.68 835.81 824.36 776.84 924.96C745.57 967.33 721.62 1014.79 699.12 1069.79C695.5 1078.65 680.75 1126.02 680.75 1126.02C680.75 1126.02 721.67 1126.37 744.94 1124.02C884.02 1110.21 986.33 1034.97 1064.56 904.35C1088.83 863.82 1097.32 820.74 1101.12 771.27C1164.99 760.537 1235.7 760.973 1313.26 772.58L1352.68 778.3C1352.68 778.3 1354.26 755.46 1355.29 730.72C1356.12 710.72 1356.41 689.48 1356.63 678.3C1364.11 304.38 1052.4 0 678.36 0ZM310.42 881.7C292.79 852.26 285.12 819.12 281.25 781.11C378.55 807.11 458.46 862.18 521.86 946.82C528.5 958.15 535.35 969.77 542.57 981.97C553.37 1000.23 570.99 1033.42 595.04 1080.83C473.46 1063.48 380.08 998.01 310.42 881.7ZM276.82 699.34C275.18 648.73 273.31 591.34 262.9 524.34C258.902 497.941 250.882 472.31 239.12 448.34C321.12 453.11 392.97 474.75 453.34 512.77C434.48 566.65 424.85 618.49 424.85 667.95C424.85 723.7 435.35 770.03 454.46 817.11C402.46 778.13 343.683 750.797 278.13 735.11C277.63 723.62 277.23 711.71 276.82 699.34ZM668.58 706.24C624.49 614.98 570.39 544.63 507.22 496.52C533.22 433.7 572.31 367.62 623.75 300.05C633.85 286.79 648.9 265.61 668.58 236.98C688.27 265.61 703.32 286.8 713.42 300.05C764.86 367.62 803.91 433.7 829.95 496.52C766.77 544.62 712.72 614.98 668.58 706.24ZM1074.27 524.39C1063.86 591.39 1061.99 648.73 1060.34 699.39C1059.94 711.77 1059.54 723.67 1059.04 735.21C993.493 750.817 934.72 778.15 882.72 817.21C901.83 770.12 912.33 723.79 912.33 668.04C912.33 618.58 902.7 566.74 883.84 512.86C944.21 474.86 1016.01 453.2 1098.06 448.43C1086.29 472.385 1078.27 498.002 1074.27 524.39ZM1026.72 881.7C957.07 998.01 863.72 1063.45 742.1 1080.83C766.1 1033.43 783.77 1000.25 794.58 981.97C801.81 969.75 808.67 958.12 815.32 946.77C878.71 862.16 958.61 807.1 1055.89 781.11C1052.05 819.11 1044.38 852.26 1026.72 881.7ZM588.59 273.3C536.59 341.627 496.947 407.54 469.66 471.04C394.01 425.44 303.32 402.63 199.33 403.26L156.42 403.54L181.57 438.3C201.2 465.43 213.87 496.68 219.23 531.16C229.23 595.5 231.05 651.43 232.66 700.78C232.94 709.56 233.23 718.11 233.55 726.51C175.743 717.697 113.2 717.23 45.9199 725.11C44.7899 709.56 44.15 693.92 44.15 678.35C44.15 328.66 328.65 44.1699 678.34 44.1699C1028.03 44.1699 1312.52 328.66 1312.52 678.35V727.96C1237.13 717.293 1167.48 716.81 1103.58 726.51C1103.9 718.11 1104.18 709.51 1104.47 700.78C1106.08 651.43 1107.9 595.5 1117.89 531.16C1123.25 496.68 1135.89 465.44 1155.56 438.29L1180.7 403.54L1137.8 403.26C1033.7 402.44 943.1 425.4 867.47 471.04C840.137 407.653 800.493 341.74 748.54 273.3C735.36 255.99 668.54 157.79 668.54 157.79C668.54 157.79 601.79 255.97 588.61 273.3H588.59Z" fill="black"/>
<path d="M678.36 1319.16C388.25 1319.16 135.56 1123.16 63.8604 842.42L21.0703 853.36C97.7603 1153.63 368.07 1363.36 678.36 1363.36C991.69 1363.36 1262.61 1151.12 1337.19 847.23L1294.29 836.7C1224.57 1120.76 971.29 1319.16 678.36 1319.16Z" fill="black"/>
<path d="M1976.72 797.48C1976.39 782.107 1972.14 767.073 1964.37 753.802C1956.6 740.532 1945.57 729.465 1932.33 721.65C1944.23 709.124 1952.19 693.385 1955.23 676.381C1958.27 659.377 1956.26 641.854 1949.45 625.98C1942.64 610.106 1931.32 596.577 1916.9 587.069C1902.48 577.56 1885.58 572.488 1868.31 572.48H1683.45V889.88H1886.38H1888.38C1912 889.36 1934.48 879.61 1951.01 862.719C1967.53 845.828 1976.78 823.139 1976.78 799.51L1976.72 797.48ZM1727.62 616.66H1868.31H1869.83C1881.44 617.005 1892.45 621.913 1900.47 630.319C1908.5 638.725 1912.88 649.953 1912.68 661.571C1912.48 673.188 1907.71 684.258 1899.41 692.384C1891.1 700.509 1879.93 705.034 1868.31 704.98H1727.62V616.66ZM1886.38 845.71H1727.62V753.27H1886.38H1887.91C1900.01 753.705 1911.45 758.867 1919.78 767.646C1928.11 776.426 1932.66 788.124 1932.46 800.225C1932.26 812.327 1927.32 823.867 1918.71 832.366C1910.09 840.866 1898.48 845.646 1886.38 845.68V845.71Z" fill="black"/>
<path d="M2576.32 571.57V755.48C2576.32 777.736 2585.02 799.109 2600.58 815.026C2616.13 830.943 2637.3 840.14 2659.55 840.65H2661.5H2692.2C2714.46 840.653 2735.83 831.946 2751.75 816.391C2767.66 800.836 2776.86 779.67 2777.37 757.42V755.42V571.57H2821.55V755.48C2821.55 789.411 2808.22 821.985 2784.43 846.18C2760.64 870.375 2728.3 884.256 2694.37 884.83H2692.18H2661.48C2627.55 884.827 2594.98 871.494 2570.79 847.705C2546.59 823.916 2532.71 791.575 2532.14 757.65V755.46V571.57H2576.32Z" fill="black"/>
<path d="M4125.53 571.57H4081.36V889.96H4125.53V571.57Z" fill="black"/>
<path d="M3672.83 571.64L3892.05 816.69L3892.06 571.57H3936.23V889.96H3892.06H3892.05L3664.88 631.24V889.96H3620.71V571.57L3672.83 571.64Z" fill="black"/>
<path d="M3469.26 571.57H3425.09V889.96H3469.26V571.57Z" fill="black"/>
<path d="M5396.69 571.57H5352.52V889.96H5396.69V571.57Z" fill="black"/>
<path d="M3014.92 571.57V702.6H3229.47V571.57H3273.65V889.96H3229.47V746.78H3014.92V889.96H2970.75V571.57H3014.92Z" fill="black"/>
<path d="M2266.01 573.27L2413.01 889.1L2244.21 888.64V844.48H2322.3C2324.57 844.48 2326.81 843.907 2328.8 842.815C2330.79 841.723 2332.48 840.146 2333.7 838.231C2334.92 836.315 2335.64 834.123 2335.79 831.856C2335.94 829.589 2335.52 827.32 2334.56 825.26L2245.1 633.05L2125.94 889.05H2077.21L2224.21 573.29L2266.01 573.27Z" fill="black"/>
<path d="M4438.99 573.27L4585.99 889.1L4417.19 888.64V844.48H4495.28C4497.55 844.48 4499.79 843.907 4501.78 842.815C4503.77 841.723 4505.46 840.146 4506.68 838.231C4507.9 836.315 4508.62 834.123 4508.77 831.856C4508.92 829.589 4508.5 827.32 4507.54 825.26L4418.07 633.05L4298.92 889.05H4250.18L4397.18 573.29L4438.99 573.27Z" fill="black"/>
<path d="M5112.56 573.27L5259.56 889.1L5090.76 888.64V844.48H5168.85C5171.12 844.48 5173.36 843.907 5175.35 842.815C5177.34 841.723 5179.03 840.146 5180.25 838.231C5181.47 836.315 5182.19 834.123 5182.34 831.856C5182.49 829.589 5182.07 827.32 5181.11 825.26L5091.64 633.05L4972.48 889.05H4923.72L5070.72 573.29L5112.56 573.27Z" fill="black"/>
</g>
<defs>
<clipPath id="clip0_1565_18361">
<rect width="5397" height="1363" fill="white"/>
</clipPath>
</defs>
</svg>
